<svg width="480" height="178" viewBox="0 0 480 178" fill="none" xmlns="http://www.w3.org/2000/svg">
<rect x="170" y="49" width="29" height="61" fill="black"/>
<rect x="223" y="49" width="54" height="61" fill="black"/>
<rect x="255" y="64" width="22" height="10" fill="white"/>
<rect x="255" y="89" width="22" height="10" fill="white"/>
<path d="M110.5 110L72.8279 47.75L148.172 47.75L110.5 110Z" fill="black"/>
<path d="M110.5 57L102.273 45H118.727L110.5 57Z" fill="white"/>
<path d="M320.5 110L282.828 52.25L358.172 52.25L320.5 110Z" fill="black"/>
<path d="M356.5 110L318.828 52.25L394.172 52.25L356.5 110Z" fill="black"/>
<path d="M338.5 60.8313L330.273 49.6988H346.727L338.5 60.8313Z" fill="white"/>
<path d="M215.886 119.364L219.341 129.159H219.477L222.932 119.364H224.409L220.136 131H218.682L214.409 119.364H215.886ZM227.631 119.364V131H226.222V119.364H227.631ZM234.047 131H230.456V119.364H234.206C235.335 119.364 236.301 119.597 237.104 120.062C237.907 120.525 238.522 121.189 238.95 122.057C239.378 122.92 239.592 123.955 239.592 125.159C239.592 126.371 239.376 127.415 238.945 128.29C238.513 129.161 237.884 129.831 237.058 130.301C236.232 130.767 235.229 131 234.047 131ZM231.865 129.75H233.956C234.918 129.75 235.715 129.564 236.348 129.193C236.981 128.822 237.452 128.294 237.763 127.608C238.073 126.922 238.229 126.106 238.229 125.159C238.229 124.22 238.075 123.411 237.768 122.733C237.462 122.051 237.003 121.528 236.393 121.165C235.784 120.797 235.024 120.614 234.115 120.614H231.865V129.75ZM241.956 131V119.364H248.979V120.614H243.365V124.545H248.615V125.795H243.365V129.75H249.07V131H241.956ZM261.337 125.182C261.337 126.409 261.115 127.47 260.672 128.364C260.229 129.258 259.621 129.947 258.848 130.432C258.075 130.917 257.193 131.159 256.2 131.159C255.208 131.159 254.325 130.917 253.553 130.432C252.78 129.947 252.172 129.258 251.729 128.364C251.286 127.47 251.064 126.409 251.064 125.182C251.064 123.955 251.286 122.894 251.729 122C252.172 121.106 252.78 120.417 253.553 119.932C254.325 119.447 255.208 119.205 256.2 119.205C257.193 119.205 258.075 119.447 258.848 119.932C259.621 120.417 260.229 121.106 260.672 122C261.115 122.894 261.337 123.955 261.337 125.182ZM259.973 125.182C259.973 124.174 259.804 123.324 259.467 122.631C259.134 121.938 258.681 121.413 258.109 121.057C257.541 120.701 256.905 120.523 256.2 120.523C255.496 120.523 254.857 120.701 254.286 121.057C253.717 121.413 253.265 121.938 252.928 122.631C252.594 123.324 252.428 124.174 252.428 125.182C252.428 126.189 252.594 127.04 252.928 127.733C253.265 128.426 253.717 128.951 254.286 129.307C254.857 129.663 255.496 129.841 256.2 129.841C256.905 129.841 257.541 129.663 258.109 129.307C258.681 128.951 259.134 128.426 259.467 127.733C259.804 127.04 259.973 126.189 259.973 125.182Z" fill="black"/>
<line x1="98" y1="123.5" x2="199" y2="123.5" stroke="black" stroke-width="3"/>
<line x1="280" y1="123.5" x2="381" y2="123.5" stroke="black" stroke-width="3"/>
</svg>
