<?xml version="1.0" encoding="UTF-8"?>
<svg version="1.1" xmlns="http://www.w3.org/2000/svg" width="1920" height="712">
<path d="M0 0 C633.6 0 1267.2 0 1920 0 C1920 234.96 1920 469.92 1920 712 C1286.4 712 652.8 712 0 712 C0 477.04 0 242.08 0 0 Z " fill="#FEFEFE" transform="translate(0,0)"/>
<path d="M0 0 C25.40824953 -0.4915803 50.81578201 -0.86136671 76.22783661 -1.08805561 C88.02867521 -1.19613398 99.82655181 -1.34333531 111.62548828 -1.58422852 C121.91537689 -1.79421122 132.20312027 -1.92917311 142.49509192 -1.97585839 C147.94100562 -2.0031351 153.38078553 -2.06671855 158.82472229 -2.22033119 C194.60345354 -3.19162931 194.60345354 -3.19162931 203.13793945 4.57974243 C206.81464605 8.86492421 209.4730122 13.39926734 211.81404114 18.52201271 C213.46803806 21.97793642 215.604658 24.70681008 218 27.6875 C221 31.74137931 221 31.74137931 221 34 C221.66 34 222.32 34 223 34 C223.27384521 33.42056641 223.54769043 32.84113281 223.82983398 32.24414062 C224.98216868 30.03419685 226.25943513 28.10898545 227.72265625 26.09375 C228.26212891 25.34867188 228.80160156 24.60359375 229.35742188 23.8359375 C229.92009766 23.06507813 230.48277344 22.29421875 231.0625 21.5 C231.59810547 20.76007813 232.13371094 20.02015625 232.68554688 19.2578125 C233.79107865 17.7352705 234.91492017 16.22585229 236.05682468 14.73039627 C238.0709343 12.01886874 238.0709343 12.01886874 239.65373898 8.93766403 C244.40857888 0.93953971 244.40857888 0.93953971 248.88465238 -0.68329525 C254.56813531 -1.78851362 260.34638787 -1.50301237 266.10571289 -1.36230469 C268.04790028 -1.35891656 269.99010302 -1.36082615 271.93228149 -1.36761475 C277.18707097 -1.37104919 282.4385539 -1.30065432 287.69257665 -1.21672726 C293.18969012 -1.14155898 298.68688488 -1.13465077 304.18443298 -1.12042236 C314.58653175 -1.08316846 324.98711175 -0.98475737 335.38854259 -0.86422849 C347.23353451 -0.72996037 359.07860011 -0.66408634 370.92416394 -0.60388327 C395.28361703 -0.47855187 419.64172331 -0.26756939 444 0 C442.4654693 3.99854812 440.62726577 7.27889974 438.21875 10.83203125 C437.84903076 11.38104599 437.47931152 11.93006073 437.09838867 12.49571228 C436.31009693 13.66578903 435.51984305 14.83454589 434.7277832 16.0020752 C432.66227133 19.04777082 430.61207568 22.10372217 428.5625 25.16015625 C427.95976257 26.05835587 427.95976257 26.05835587 427.34484863 26.97470093 C424.30704855 31.51310767 421.36173069 36.09901621 418.5 40.75 C415.09516236 46.27865434 411.56914945 51.70543761 407.94799805 57.09472656 C404.52186418 62.19930329 401.15801542 67.34226735 397.8125 72.5 C397.267146 73.34062988 396.72179199 74.18125977 396.15991211 75.04736328 C395.02337987 76.79944178 393.88690643 78.55155843 392.75048828 80.30371094 C389.75674572 84.91499307 386.75364993 89.52016722 383.75 94.125 C382.81861206 95.55295898 382.81861206 95.55295898 381.8684082 97.00976562 C376.36551006 105.44403551 370.8536456 113.87243442 365.34130859 122.30053711 C358.83306426 132.25244974 352.33643333 142.21190677 345.84277344 152.17333984 C342.72918227 156.94932799 339.61453276 161.72462586 336.5 166.5 C335.24999504 168.41666343 333.99999503 170.33333009 332.75 172.25 C330.25 176.08333333 327.75 179.91666667 325.25 183.75 C324.63036377 184.70011963 324.01072754 185.65023926 323.37231445 186.62915039 C322.13130605 188.53200836 320.89025834 190.4348407 319.64916992 192.33764648 C316.38626368 197.34036884 313.12418657 202.34362937 309.86328125 207.34765625 C309.18523437 208.38792969 308.5071875 209.42820312 307.80859375 210.5 C306.51276788 212.4881164 305.21718094 214.47638856 303.921875 216.46484375 C300.97069178 220.9921534 298.00980883 225.51142654 295 230 C291.5410515 228.84701717 291.25803729 228.26962167 289.43359375 225.2734375 C288.71345093 224.10856812 288.71345093 224.10856812 287.97875977 222.92016602 C287.47014404 222.08026123 286.96152832 221.24035645 286.4375 220.375 C285.3530948 218.62014594 284.2671393 216.86624901 283.1796875 215.11328125 C282.64053711 214.2413916 282.10138672 213.36950195 281.54589844 212.47119141 C279.45104781 209.12247409 277.27160213 205.83655865 275.0625 202.5625 C271.26068051 196.90800166 267.5206298 191.21639803 263.8125 185.5 C263.26843506 184.66130371 262.72437012 183.82260742 262.16381836 182.95849609 C261.02893283 181.20884661 259.89408667 179.45917157 258.75927734 177.70947266 C255.72147929 173.03094326 252.67317156 168.35927491 249.625 163.6875 C249.00689453 162.74011963 248.38878906 161.79273926 247.75195312 160.81665039 C246.4865114 158.8771025 245.22104896 156.93756813 243.95556641 154.99804688 C241.92136692 151.87944892 239.88828764 148.76012303 237.85546875 145.640625 C237.1785498 144.60204346 236.50163086 143.56346191 235.80419922 142.4934082 C234.51002019 140.50772067 233.21606239 138.52188892 231.92236328 136.53588867 C231.33567871 135.63588135 230.74899414 134.73587402 230.14453125 133.80859375 C229.60006348 132.97183105 229.0555957 132.13506836 228.49462891 131.27294922 C227.2115067 129.32164772 225.89926002 127.39550414 224.57421875 125.47265625 C223 123 223 123 223 121 C222.34 121 221.68 121 221 121 C220.74887451 121.7007666 220.49774902 122.4015332 220.23901367 123.12353516 C218.84584753 126.35787672 217.12003611 129.08651171 215.17578125 132.0234375 C214.79771835 132.59743286 214.41965546 133.17142822 214.03013611 133.76281738 C212.79498049 135.63625908 211.55371596 137.50556926 210.3125 139.375 C209.44774716 140.68473189 208.5834947 141.99479428 207.71972656 143.30517578 C205.97383394 145.95325332 204.22610106 148.60010092 202.47705078 151.24609375 C199.0457154 156.44117808 195.64651784 161.65710803 192.25 166.875 C191.03652128 168.73702019 189.82297994 170.59899957 188.609375 172.4609375 C188.01576172 173.37198242 187.42214844 174.28302734 186.81054688 175.22167969 C183.09150375 180.92862559 179.36955523 186.63367728 175.64819336 192.33911133 C172.38563379 197.3413592 169.12386619 202.344121 165.86328125 207.34765625 C165.18523437 208.38792969 164.5071875 209.42820312 163.80859375 210.5 C162.51276788 212.4881164 161.21718094 214.47638856 159.921875 216.46484375 C156.97069178 220.9921534 154.00980883 225.51142654 151 230 C147.5410515 228.84701717 147.25803729 228.26962167 145.43359375 225.2734375 C144.71345093 224.10856812 144.71345093 224.10856812 143.97875977 222.92016602 C143.47014404 222.08026123 142.96152832 221.24035645 142.4375 220.375 C141.3530948 218.62014594 140.2671393 216.86624901 139.1796875 215.11328125 C138.37096191 213.80544678 138.37096191 213.80544678 137.54589844 212.47119141 C135.45104781 209.12247409 133.27160213 205.83655865 131.0625 202.5625 C127.26068051 196.90800166 123.5206298 191.21639803 119.8125 185.5 C119.26843506 184.66130371 118.72437012 183.82260742 118.16381836 182.95849609 C117.02893283 181.20884661 115.89408667 179.45917157 114.75927734 177.70947266 C111.72147925 173.0309432 108.67314607 168.35929161 105.625 163.6875 C104.99891846 162.72779297 104.37283691 161.76808594 103.7277832 160.77929688 C102.45431106 158.8272807 101.18079205 156.87529511 99.90722656 154.92333984 C96.77083992 150.11598019 93.63546604 145.30796012 90.5 140.5 C89.25000497 138.58333009 88.00000496 136.66666343 86.75 134.75 C64.25 100.25000001 64.25 100.25000001 62.37548828 97.37573242 C61.12388053 95.4566114 59.87225289 93.53750335 58.62060547 91.6184082 C55.52004182 86.86439867 52.41980988 82.11017353 49.3203125 77.35546875 C42.00923744 66.14102311 34.68909001 54.93256302 27.3605957 43.72949219 C23.8367444 38.34173558 20.31559283 32.95225285 16.80078125 27.55859375 C16.12917969 26.52798828 15.45757813 25.49738281 14.765625 24.43554688 C13.5086828 22.5061406 12.25214014 20.57647394 10.99609375 18.64648438 C10.42632813 17.77185547 9.8565625 16.89722656 9.26953125 15.99609375 C8.7276416 15.16319824 8.18575195 14.33030273 7.62744141 13.47216797 C5.48522777 10.21803427 3.28568427 7.00369695 1.07299805 3.79711914 C0 2 0 2 0 0 Z " fill="#000000" transform="translate(1132,209)"/>
<path d="M0 0 C71.28 0 142.56 0 216 0 C216 19.8 216 39.6 216 60 C186.96 60 157.92 60 128 60 C128 73.2 128 86.4 128 100 C157.04 100 186.08 100 216 100 C216 119.8 216 139.6 216 160 C186.96 160 157.92 160 128 160 C128 173.2 128 186.4 128 200 C157.04 200 186.08 200 216 200 C216 214.52 216 229.04 216 244 C144.72 244 73.44 244 0 244 C0 163.48 0 82.96 0 0 Z " fill="#000000" transform="translate(892,196)"/>
<path d="M0 0 C16.05519846 -0.46885161 32.10815303 -0.82065075 48.16855812 -1.03624344 C55.62740528 -1.13904853 63.0819824 -1.27894754 70.53808594 -1.50878906 C77.04330107 -1.70922157 83.54542472 -1.8374009 90.05364168 -1.8817699 C93.49642277 -1.90768937 96.93036873 -1.96771449 100.37028885 -2.11460114 C121.22730646 -2.90657332 121.22730646 -2.90657332 127.48888397 1.91749573 C131.82204029 6.57233371 134.86243174 11.78095272 137.68485641 17.44876862 C139.73269956 21.42135516 142.24516309 25.05615071 144.75 28.75 C145.15546743 29.38421497 145.56093487 30.01842995 145.97868919 30.67186356 C146.93351748 32.14969269 147.95952323 33.58116805 149 35 C149.66 35 150.32 35 151 35 C152.56529432 33.11264831 152.56529432 33.11264831 154.16015625 30.64453125 C155.1047168 29.24364258 155.1047168 29.24364258 156.06835938 27.81445312 C156.72642578 26.82380859 157.38449219 25.83316406 158.0625 24.8125 C159.98195369 21.95194542 161.89887522 19.09797031 163.8890686 16.28601074 C166.08520714 13.08979841 166.08520714 13.08979841 167.37594604 9.60693359 C169.33786531 5.46913489 171.05240427 2.44630021 175 0 C183.41155678 -2.31746478 192.50848395 -1.55553757 201.15368199 -1.31812119 C204.63268101 -1.23641676 208.11184919 -1.22918473 211.59165955 -1.21379089 C218.16946471 -1.17350783 224.74443487 -1.06701349 231.32099575 -0.93624753 C238.81279987 -0.79054241 246.30474516 -0.71936732 253.79761517 -0.65420687 C269.2000477 -0.5186048 284.59965723 -0.29020466 300 0 C298.39020721 4.16474904 296.39634668 7.92677836 294.10546875 11.75 C293.72193741 12.39609726 293.33840607 13.04219452 292.94325256 13.70787048 C291.69514278 15.80754119 290.44155903 17.90387801 289.1875 20 C288.31793833 21.45900883 287.44847286 22.918075 286.57910156 24.37719727 C281.36930752 33.10738345 276.08681738 41.78852881 270.70483398 50.41381836 C266.6488126 56.92148502 262.68617366 63.48172567 258.75 70.0625 C253.40539737 78.99781317 248.03242654 87.91511487 242.625 96.8125 C242.2718573 97.39368591 241.9187146 97.97487183 241.55487061 98.57366943 C238.67666866 103.3102019 235.79675847 108.04569497 232.91674805 112.78112793 C230.40202887 116.9160974 227.88798525 121.0514765 225.375 125.1875 C225.02133362 125.76956207 224.66766724 126.35162415 224.30328369 126.95132446 C219.34228127 135.11834459 214.40968238 143.3020025 209.5 151.5 C204.23682572 160.28824459 198.94428184 169.05814233 193.625 177.8125 C193.27249176 178.39265869 192.91998352 178.97281738 192.55679321 179.57055664 C190.40285908 183.1150161 188.24803483 186.65893386 186.09295654 190.20269775 C182.78989936 195.63437949 179.48811581 201.06683441 176.1875 206.5 C175.65573151 207.37520798 175.65573151 207.37520798 175.11322021 208.26809692 C169.99227929 216.69787436 164.89577048 225.14192931 159.84057617 233.61132812 C158.98191495 235.04796786 158.12051082 236.48297316 157.25585938 237.91601562 C156.37435697 239.37878866 155.50138418 240.84671957 154.63476562 242.31835938 C153.97250977 243.42147461 153.97250977 243.42147461 153.296875 244.546875 C152.90338867 245.21041992 152.50990234 245.87396484 152.10449219 246.55761719 C151.74000977 247.03360352 151.37552734 247.50958984 151 248 C150.34 248 149.68 248 149 248 C147.40283203 245.74707031 147.40283203 245.74707031 145.5078125 242.578125 C145.1661203 242.01132019 144.8244281 241.44451538 144.47238159 240.86053467 C143.34966334 238.99441585 142.23738496 237.1222936 141.125 235.25 C140.3470253 233.95272229 139.56837482 232.65584961 138.7890625 231.359375 C136.86206012 228.15021074 134.94292914 224.93642765 133.02648926 221.72094727 C131.15140074 218.57729191 129.26584823 215.43992241 127.3815918 212.30175781 C126.44990021 210.74954217 125.51909262 209.19679563 124.58911133 207.64355469 C120.3576661 200.5790541 116.08807094 193.53784627 111.8125 186.5 C111.27576157 185.61646851 111.27576157 185.61646851 110.72817993 184.71508789 C108.15286852 180.47627017 105.57654125 176.23807026 103 172 C100.06181909 167.16708024 97.1240594 162.33390522 94.1875 157.5 C93.82927155 156.91033447 93.47104309 156.32066895 93.10195923 155.71313477 C88.23690736 147.70325362 83.39854114 139.67792168 78.58544922 131.63671875 C74.35440113 124.57498968 70.0867019 117.53565956 65.8125 110.5 C65.45367737 109.90931732 65.09485474 109.31863464 64.72515869 108.71005249 C61.42505751 103.27804794 58.12329509 97.84705377 54.82080078 92.41650391 C52.67156176 88.88222398 50.52293381 85.34757331 48.375 81.8125 C48.02160553 81.23089111 47.66821106 80.64928223 47.30410767 80.05004883 C41.7294426 70.87278054 36.19586458 61.67133574 30.67895508 52.45922852 C25.83294307 44.37353558 20.95492177 36.30766056 16.0625 28.25 C15.71509766 27.67757568 15.36769531 27.10515137 15.00976562 26.51538086 C13.99791629 24.84847953 12.98529149 23.18204901 11.97265625 21.515625 C11.32570801 20.45021484 10.67875977 19.38480469 10.01220703 18.28710938 C8.59240895 15.96774983 7.16298571 13.65718828 5.71826172 11.35351562 C5.34640244 10.75794861 4.97454315 10.16238159 4.59141541 9.54876709 C3.55316058 7.8881495 2.50999754 6.23060358 1.46655273 4.57324219 C0 2 0 2 0 0 Z " fill="#000000" transform="translate(292,191)"/>
<path d="M0 0 C38.28 0 76.56 0 116 0 C116 80.52 116 161.04 116 244 C77.72 244 39.44 244 0 244 C0 163.48 0 82.96 0 0 Z " fill="#000000" transform="translate(680,196)"/>
<path d="M0 0 C133.32 0 266.64 0 404 0 C404 3.96 404 7.92 404 12 C270.68 12 137.36 12 0 12 C0 8.04 0 4.08 0 0 Z " fill="#000000" transform="translate(1120,488)"/>
<path d="M0 0 C133.32 0 266.64 0 404 0 C404 3.96 404 7.92 404 12 C270.68 12 137.36 12 0 12 C0 8.04 0 4.08 0 0 Z " fill="#000000" transform="translate(392,488)"/>
<path d="M0 0 C5.35202504 3.10373583 8.7596694 7.45175722 10.625 13.375 C12.07416804 30.31004511 12.07416804 30.31004511 7.9609375 36.80078125 C3.75002234 41.76276607 -0.77333709 45.7163306 -7.3671875 46.66015625 C-13.69685431 47.08724449 -18.4452653 45.35707696 -23.375 41.375 C-29.40687299 34.09565936 -31.17913018 26.66717101 -30.375 17.375 C-28.89933238 9.53784089 -25.11759423 4.07314933 -18.6875 -0.5625 C-12.45894807 -2.56033741 -6.03548092 -2.73196959 0 0 Z " fill="#FBFBFB" transform="translate(1034.375,478.625)"/>
<path d="M0 0 C23.74860335 0 23.74860335 0 29.2734375 5.09765625 C34.6935905 10.94571607 36.19195735 14.79815693 36.25 22.75 C36.270625 23.4409375 36.29125 24.131875 36.3125 24.84375 C36.35940077 31.08155299 34.64748829 35.37622235 31.3125 40.6875 C29 43 29 43 21 47 C14.07 47 7.14 47 0 47 C0 31.49 0 15.98 0 0 Z " fill="#FDFDFD" transform="translate(922,477)"/>
<path d="M0 0 C23.74860335 0 23.74860335 0 29.2734375 5.09765625 C34.6935905 10.94571607 36.19195735 14.79815693 36.25 22.75 C36.270625 23.4409375 36.29125 24.131875 36.3125 24.84375 C36.35940077 31.08155299 34.64748829 35.37622235 31.3125 40.6875 C29 43 29 43 21 47 C14.07 47 7.14 47 0 47 C0 31.49 0 15.98 0 0 Z M6 6 C6 17.88 6 29.76 6 42 C18.53290527 42.95446378 18.53290527 42.95446378 23.625 40.375 C28.66054785 35.33945215 31.09765579 30.80861495 31.25 23.75 C31.18067203 19.07421357 30.3438291 15.07863175 28 11 C20.59829835 3.95935697 18.44950931 6 6 6 Z " fill="#101010" transform="translate(922,477)"/>
<path d="M0 0 C5.35202504 3.10373583 8.7596694 7.45175722 10.625 13.375 C12.07416804 30.31004511 12.07416804 30.31004511 7.9609375 36.80078125 C3.75002234 41.76276607 -0.77333709 45.7163306 -7.3671875 46.66015625 C-13.69685431 47.08724449 -18.4452653 45.35707696 -23.375 41.375 C-29.40687299 34.09565936 -31.17913018 26.66717101 -30.375 17.375 C-28.89933238 9.53784089 -25.11759423 4.07314933 -18.6875 -0.5625 C-12.45894807 -2.56033741 -6.03548092 -2.73196959 0 0 Z M-19.7578125 7.83984375 C-24.73626114 13.65751659 -24.87624787 18.10216319 -24.72265625 25.5859375 C-24.14363887 31.89657638 -21.74499443 35.26833828 -17.125 39.375 C-11.95557317 41.25479158 -7.25961811 40.97950015 -2.0625 39.3125 C2.39028133 36.10235532 4.55653234 31.75728103 5.625 26.375 C6.36287168 19.58658053 6.06061412 14.58478899 1.9921875 8.96484375 C-0.56966825 5.98577149 -2.66243396 4.61252201 -6.375 3.375 C-12.19438224 2.94393465 -15.67723671 3.5171999 -19.7578125 7.83984375 Z " fill="#0D0D0D" transform="translate(1034.375,478.625)"/>
<path d="M0 0 C9.24 0 18.48 0 28 0 C28 1.32 28 2.64 28 4 C17.11 4.495 17.11 4.495 6 5 C5.67 9.95 5.34 14.9 5 20 C12.26 20 19.52 20 27 20 C27 21.65 27 23.3 27 25 C19.74 25 12.48 25 5 25 C5 30.28 5 35.56 5 41 C12.59 41 20.18 41 28 41 C28 42.65 28 44.3 28 46 C18.76 46 9.52 46 0 46 C0 30.82 0 15.64 0 0 Z " fill="#020202" transform="translate(968,478)"/>
<path d="M0 0 C1.65 0 3.3 0 5 0 C3.49246673 8.20668998 0.58516066 15.75829752 -2.4375 23.5 C-5.45456051 31.28296997 -8.45023216 39.04818167 -11 47 C-13.31 47 -15.62 47 -18 47 C-18.20044922 46.41847168 -18.40089844 45.83694336 -18.60742188 45.23779297 C-22.81937876 33.03410157 -27.09840554 20.86036029 -31.56054688 8.74560547 C-31.88087891 7.87307129 -32.20121094 7.00053711 -32.53125 6.1015625 C-32.81548828 5.33150879 -33.09972656 4.56145508 -33.39257812 3.76806641 C-34 2 -34 2 -34 1 C-32.02 1 -30.04 1 -28 1 C-23.56109156 12.9640402 -19.21079817 24.95372393 -15 37 C-12.48382969 34.48382969 -11.89345843 32.28750726 -10.72265625 28.92578125 C-10.07586914 27.08790039 -10.07586914 27.08790039 -9.41601562 25.21289062 C-8.96448618 23.91288456 -8.51331714 22.61275325 -8.0625 21.3125 C-2.71079915 5.96733674 -2.71079915 5.96733674 0 0 Z " fill="#0D0D0D" transform="translate(892,477)"/>
<path d="M0 0 C1.65 0 3.3 0 5 0 C5 15.18 5 30.36 5 46 C3.35 46 1.7 46 0 46 C0 30.82 0 15.64 0 0 Z " fill="#000000" transform="translate(905,478)"/>
</svg>
